<?xml version="1.0" encoding="UTF-8" standalone="no"?>
<svg width="343px" height="61px" viewBox="0 0 343 61" version="1.1" xmlns="http://www.w3.org/2000/svg" xmlns:xlink="http://www.w3.org/1999/xlink" xmlns:sketch="http://www.bohemiancoding.com/sketch/ns">
    <!-- Generator: Sketch 3.3.1 (12002) - http://www.bohemiancoding.com/sketch -->
    <title>Group + Group + Group</title>
    <desc>Created with Sketch.</desc>
    <defs></defs>
    <g id="Page-1" stroke="none" stroke-width="1" fill="none" fill-rule="evenodd" sketch:type="MSPage">
        <g id="Desktop-Landscape" sketch:type="MSArtboardGroup" transform="translate(-135.000000, -30.000000)">
            <g id="Group" sketch:type="MSLayerGroup">
                <g id="Group-+-Group-+-Group" transform="translate(134.000000, 30.000000)" sketch:type="MSShapeGroup">
                    <g id="Group">
                        <g transform="translate(94.335559, 8.552746)" fill="#FFFFFF">
                            <path d="M0.470250522,17.2831201 L8.00782881,0.648366578 C8.08141962,0.500198527 8.30219207,0.376199732 8.42484342,0.376199732 L8.67066806,0.376199732 C8.79331942,0.376199732 9.01461378,0.499673108 9.08820459,0.648366578 L16.5767223,17.2831201 C16.723904,17.6041509 16.5276618,17.9257071 16.1591858,17.9257071 L14.6122129,17.9257071 C14.3178497,17.9257071 14.1456159,17.777539 14.0474948,17.555287 L12.5250522,14.1689639 L4.49686848,14.1689639 C4.00626305,15.3059698 3.49008351,16.4182811 2.99895616,17.555287 C2.92536534,17.7276243 2.72912317,17.9257071 2.434238,17.9257071 L0.887265136,17.9257071 C0.519311065,17.9251817 0.323068894,17.6041509 0.470250522,17.2831201 L0.470250522,17.2831201 Z M11.59238,12.0425948 L8.57202505,5.26994876 L8.44989562,5.26994876 L5.4545929,12.0425948 L11.59238,12.0425948 L11.59238,12.0425948 Z" id="Shape"></path>
                            <path d="M38.7740084,0.376199732 C43.6847599,0.376199732 47.6132568,4.35572036 47.6132568,9.29885875 C47.6132568,12.8086551 45.5751566,15.8492527 42.6043841,17.331984 L45.5751566,22.077565 C45.7964509,22.4238159 45.5751566,22.8189307 45.1826722,22.8189307 L43.2672234,22.8189307 C43.1691023,22.8189307 42.9728601,22.7448467 42.874739,22.5714585 L40.2228601,18.0728243 C39.756263,18.1474337 39.2160752,18.171603 38.7745303,18.171603 C33.8637787,18.171603 29.960334,14.2414717 29.960334,9.29780791 C29.960334,4.35414411 33.8632568,0.376199732 38.7740084,0.376199732 L38.7740084,0.376199732 Z M38.7740084,15.7005592 C42.2849687,15.7005592 45.15762,12.8333498 45.15762,9.29885875 C45.15762,5.78906236 42.2849687,2.84776892 38.7740084,2.84776892 C35.2875783,2.84776892 32.4149269,5.78958778 32.4149269,9.29885875 C32.4149269,12.8333498 35.2875783,15.7005592 38.7740084,15.7005592 L38.7740084,15.7005592 Z" id="Shape"></path>
                            <path d="M61.0208768,1.26573346 C60.8736952,0.94470268 61.0699374,0.623146484 61.4384134,0.623146484 L63.1816284,0.623146484 C63.3778706,0.623146484 63.5501044,0.770789116 63.598643,0.89531333 L69.0005219,13.1296859 L69.1477035,13.1296859 L74.5495825,0.89531333 C74.598643,0.771314535 74.7458246,0.623146484 74.967119,0.623146484 L76.710334,0.623146484 C77.07881,0.623146484 77.2750522,0.944177261 77.1278706,1.26573346 L69.5902923,17.900487 C69.5167015,18.048655 69.3695198,18.1726538 69.1727557,18.1726538 L68.927453,18.1726538 C68.7557411,18.1726538 68.5835073,18.0491805 68.5099165,17.900487 L61.0208768,1.26573346 L61.0208768,1.26573346 Z" id="Shape"></path>
                            <path d="M88.4723382,17.2831201 L96.0099165,0.648366578 C96.0835073,0.500198527 96.3042797,0.376199732 96.4269311,0.376199732 L96.6727557,0.376199732 C96.7954071,0.376199732 97.0167015,0.499673108 97.0902923,0.648366578 L104.57881,17.2831201 C104.725992,17.6041509 104.529749,17.9257071 104.161273,17.9257071 L102.614301,17.9257071 C102.319937,17.9257071 102.147704,17.777539 102.049582,17.555287 L100.52714,14.1689639 L92.4984342,14.1689639 C92.0078288,15.3059698 91.4916493,16.4182811 91.0005219,17.555287 C90.9269311,17.7276243 90.7306889,17.9257071 90.4358038,17.9257071 L88.8888309,17.9257071 C88.5213987,17.9251817 88.3251566,17.6041509 88.4723382,17.2831201 L88.4723382,17.2831201 Z M99.5949896,12.0425948 L96.5746347,5.26994876 L96.4519833,5.26994876 L93.4566806,12.0425948 L99.5949896,12.0425948 L99.5949896,12.0425948 Z" id="Shape"></path>
                            <path d="M119.312109,1.09287073 C119.312109,0.845398561 119.508351,0.623146484 119.778706,0.623146484 L129.599165,0.623146484 C129.86952,0.623146484 130.066284,0.845398561 130.066284,1.09287073 L130.066284,2.47682338 C130.066284,2.72429555 129.86952,2.94707304 129.599165,2.94707304 L121.840814,2.94707304 L121.840814,8.65679719 L128.396138,8.65679719 C128.641962,8.65679719 128.863257,8.87904927 128.863257,9.12652144 L128.863257,10.4857794 C128.863257,10.7332516 128.641962,10.9560291 128.396138,10.9560291 L121.840814,10.9560291 L121.840814,17.4559828 C121.840814,17.703455 121.620042,17.9262325 121.374217,17.9262325 L119.778184,17.9262325 C119.507829,17.9262325 119.311587,17.703455 119.311587,17.4559828 L119.311587,1.09287073 L119.312109,1.09287073 Z" id="Shape"></path>
                            <path d="M142.613779,17.2831201 L150.150835,0.648366578 C150.22547,0.500198527 150.445198,0.376199732 150.568894,0.376199732 L150.814718,0.376199732 C150.936848,0.376199732 151.158142,0.499673108 151.231733,0.648366578 L158.720251,17.2831201 C158.867954,17.6041509 158.67119,17.9257071 158.303236,17.9257071 L156.756785,17.9257071 C156.461378,17.9257071 156.289666,17.777539 156.192067,17.555287 L154.669102,14.1689639 L146.640397,14.1689639 C146.149269,15.3059698 145.634134,16.4182811 145.143006,17.555287 C145.069415,17.7276243 144.872651,17.9257071 144.578288,17.9257071 L143.030793,17.9257071 C142.662839,17.9251817 142.466075,17.6041509 142.613779,17.2831201 L142.613779,17.2831201 Z M153.73643,12.0425948 L150.716075,5.26994876 L150.593946,5.26994876 L147.598121,12.0425948 L153.73643,12.0425948 L153.73643,12.0425948 Z" id="Shape"></path>
                            <path d="M173.454071,1.09287073 C173.454071,0.845398561 173.649791,0.623146484 173.920146,0.623146484 L180.599165,0.623146484 C183.545407,0.623146484 185.950939,2.9712423 185.950939,5.91201032 C185.950939,8.18602211 184.453549,10.0649191 182.31785,10.9302836 L185.680585,17.2079852 C185.852818,17.5295414 185.680585,17.9246562 185.26357,17.9246562 L183.348121,17.9246562 C183.152401,17.9246562 183.004697,17.8011829 182.955637,17.7018787 L179.689457,11.1520102 L175.981733,11.1520102 L175.981733,17.4544066 C175.981733,17.7018787 175.761482,17.9246562 175.515658,17.9246562 L173.919102,17.9246562 C173.648747,17.9246562 173.453027,17.7018787 173.453027,17.4544066 L173.453027,1.09287073 L173.454071,1.09287073 Z M180.401879,9.02721732 C181.99739,9.02721732 183.39666,7.66743393 183.39666,5.96245051 C183.39666,4.35572036 181.996868,3.02063165 180.401879,3.02063165 L176.031837,3.02063165 L176.031837,9.02721732 L180.401879,9.02721732 L180.401879,9.02721732 Z" id="Shape"></path>
                            <path d="M203.925365,0.74661986 C203.974426,0.549062459 204.17119,0.376199732 204.367954,0.376199732 L204.760438,0.376199732 C204.908142,0.376199732 205.128392,0.499673108 205.178497,0.648366578 L210.308977,13.2789048 L210.40762,13.2789048 L215.514614,0.648366578 C215.563674,0.500198527 215.760438,0.376199732 215.931628,0.376199732 L216.325157,0.376199732 C216.520877,0.376199732 216.717641,0.549062459 216.766701,0.74661986 L219.787056,17.3566787 C219.860647,17.7024042 219.688413,17.9251817 219.344468,17.9251817 L217.748956,17.9251817 C217.527662,17.9251817 217.330898,17.7523189 217.281837,17.5794562 L215.465553,6.53095345 L215.390919,6.53095345 L210.971816,17.9010124 C210.922756,18.0491805 210.775052,18.1731793 210.553758,18.1731793 L210.112213,18.1731793 C209.915449,18.1731793 209.743215,18.0497059 209.694154,17.9010124 L205.250522,6.53095345 L205.151879,6.53095345 L203.384134,17.5794562 C203.359603,17.7523189 203.138309,17.9251817 202.942589,17.9251817 L201.346033,17.9251817 C201.00261,17.9251817 200.830376,17.7024042 200.878914,17.3566787 L203.925365,0.74661986 L203.925365,0.74661986 Z" id="Shape"></path>
                            <path d="M233.365866,17.2831201 L240.902923,0.648366578 C240.977557,0.500198527 241.197286,0.376199732 241.320981,0.376199732 L241.566806,0.376199732 C241.688935,0.376199732 241.91023,0.499673108 241.98382,0.648366578 L249.472338,17.2831201 C249.620042,17.6041509 249.423278,17.9257071 249.055324,17.9257071 L247.508873,17.9257071 C247.213466,17.9257071 247.041754,17.777539 246.944154,17.555287 L245.42119,14.1689639 L237.392484,14.1689639 C236.901357,15.3059698 236.386221,16.4182811 235.895094,17.555287 C235.821503,17.7276243 235.624739,17.9257071 235.330376,17.9257071 L233.782881,17.9257071 C233.414927,17.9251817 233.218163,17.6041509 233.365866,17.2831201 L233.365866,17.2831201 Z M244.487996,12.0425948 L241.467641,5.26994876 L241.345511,5.26994876 L238.349687,12.0425948 L244.487996,12.0425948 L244.487996,12.0425948 Z" id="Shape"></path>
                        </g>
                        <g transform="translate(94.368948, 35.575660)" fill="#FFFFFF">
                            <path d="M0.108447412,1.13268269 C0.108447412,0.917063576 0.300941569,0.72259697 0.515125209,0.72259697 L1.17936561,0.72259697 C1.39354925,0.72259697 1.58604341,0.916381237 1.58604341,1.13268269 L1.58604341,15.4065316 C1.58604341,15.6221507 1.39354925,15.8172997 1.17936561,15.8172997 L0.515125209,15.8172997 C0.300941569,15.8172997 0.108447412,15.6228331 0.108447412,15.4065316 L0.108447412,1.13268269 L0.108447412,1.13268269 Z" id="Shape"></path>
                            <path d="M4.34941903,2.18894342 C4.34941903,1.60622594 4.79947579,1.1538352 5.35594658,1.1538352 C5.93410684,1.1538352 6.38416361,1.60622594 6.38416361,2.18894342 C6.38416361,2.74982605 5.93410684,3.20289913 5.35594658,3.20289913 C4.798798,3.20289913 4.34941903,2.74982605 4.34941903,2.18894342 L4.34941903,2.18894342 Z M4.64900501,7.60125613 C4.64900501,7.38631936 4.84217696,7.19185275 5.0563606,7.19185275 L5.71992321,7.19185275 C5.93410684,7.19185275 6.1272788,7.38563702 6.1272788,7.60125613 L6.1272788,15.4065316 C6.1272788,15.6221507 5.93410684,15.8172997 5.71992321,15.8172997 L5.0563606,15.8172997 C4.84217696,15.8172997 4.64900501,15.6228331 4.64900501,15.4065316 L4.64900501,7.60125613 L4.64900501,7.60125613 Z" id="Shape"></path>
                            <path d="M9.85380301,8.48624978 L8.54701169,8.48624978 C8.31113856,8.48624978 8.14033389,8.29178317 8.14033389,8.07548172 L8.14033389,7.60125613 C8.14033389,7.36380217 8.31113856,7.19185275 8.54701169,7.19185275 L9.85380301,7.19185275 L9.85380301,4.17318514 C9.85380301,1.67173048 11.2886978,0.506977855 13.1309482,0.506977855 C14.3089583,0.506977855 15.1013022,1.02487313 15.4869683,1.39128916 C15.6367613,1.52025123 15.6584508,1.73655268 15.5723706,1.88803193 L15.2294057,2.44754989 C15.1013022,2.663169 14.8871185,2.64201649 14.6729349,2.46938473 C14.3943606,2.25444796 13.7518097,1.8436799 13.1092588,1.8436799 C12.1237429,1.8436799 11.331399,2.51237209 11.331399,4.17318514 L11.331399,7.19185275 L13.8162003,7.19185275 C14.0520735,7.19185275 14.2235559,7.36380217 14.2235559,7.60125613 L14.2235559,8.07548172 C14.2235559,8.29110083 14.0520735,8.48624978 13.8162003,8.48624978 L11.331399,8.48624978 L11.331399,15.407214 C11.331399,15.6228331 11.138227,15.817982 10.9240434,15.817982 L10.2604808,15.817982 C10.0462972,15.817982 9.85312521,15.6235154 9.85312521,15.407214 L9.85312521,8.48624978 L9.85380301,8.48624978 Z" id="Shape"></path>
                            <path d="M19.5991586,6.97623363 C21.8480868,6.97623363 23.4761536,8.6581992 23.4761536,10.9221999 C23.4761536,11.0729968 23.4544641,11.3534381 23.4334524,11.5049174 C23.4117629,11.7198542 23.2402805,11.8713334 23.0477863,11.8713334 L16.8791619,11.8713334 C16.9645643,13.315845 18.2286544,14.6736996 19.7489516,14.6736996 C20.6483873,14.6736996 21.3770184,14.328436 21.8690985,14.0275246 C22.1686845,13.8548928 22.2974658,13.7470832 22.4689482,13.9845372 C22.5977295,14.157169 22.7048214,14.3079659 22.8336027,14.4805976 C22.9833957,14.6743819 23.0694758,14.8040263 22.7482003,15.0407979 C22.2337529,15.451566 21.0774324,16.0329188 19.5991586,16.0329188 C17.0072654,16.0329188 15.4008881,13.9845372 15.4008881,11.5049174 C15.4008881,9.06760258 17.0072654,6.97623363 19.5991586,6.97623363 L19.5991586,6.97623363 Z M21.9978798,10.6635934 C21.9334891,9.4128661 20.9052721,8.29110083 19.5984808,8.29110083 C18.163586,8.29110083 17.0499666,9.32689139 16.8994958,10.6635934 L21.9978798,10.6635934 L21.9978798,10.6635934 Z" id="Shape"></path>
                            <path d="M30.5855593,1.13268269 C30.5855593,0.917063576 30.7780534,0.72259697 30.9922371,0.72259697 L31.6564775,0.72259697 C31.8706611,0.72259697 32.0631553,0.916381237 32.0631553,1.13268269 L32.0631553,7.53711627 C32.0631553,7.53711627 32.9415793,6.97623363 34.3547846,6.97623363 C36.9249883,6.97623363 38.466975,8.95979302 38.466975,11.4830825 C38.466975,13.96202 36.7535058,16.0322364 34.5689683,16.0322364 C32.962591,16.0322364 31.934374,14.8893187 31.934374,14.8893187 L31.8062705,15.4720362 C31.7635693,15.6658204 31.634788,15.8172997 31.4422938,15.8172997 L30.9922371,15.8172997 C30.7780534,15.8172997 30.5855593,15.6228331 30.5855593,15.4065316 L30.5855593,1.13268269 L30.5855593,1.13268269 Z M34.4198531,14.6736996 C35.9835292,14.6736996 36.9690451,13.1862006 36.9690451,11.504235 C36.9690451,9.77928212 36.0262304,8.4200629 34.1629683,8.4200629 C32.9849583,8.4200629 32.0855225,8.93795817 32.0855225,8.93795817 L32.0855225,13.2496581 C32.0848447,13.2503405 32.8778664,14.6736996 34.4198531,14.6736996 L34.4198531,14.6736996 Z" id="Shape"></path>
                            <path d="M44.4647947,6.97623363 C46.7137229,6.97623363 48.3417896,8.6581992 48.3417896,10.9221999 C48.3417896,11.0729968 48.3201002,11.3534381 48.2990885,11.5049174 C48.277399,11.7198542 48.1059165,11.8713334 47.9134224,11.8713334 L41.744798,11.8713334 C41.8302003,13.315845 43.0942905,14.6736996 44.6145876,14.6736996 C45.5140234,14.6736996 46.2426544,14.328436 46.7347346,14.0275246 C47.0343205,13.8548928 47.1631018,13.7470832 47.3345843,13.9845372 C47.4633656,14.157169 47.5704574,14.3079659 47.6992387,14.4805976 C47.8490317,14.6743819 47.9351119,14.8040263 47.6138364,15.0407979 C47.099389,15.451566 45.9430684,16.0329188 44.4647947,16.0329188 C41.8729015,16.0329188 40.2665242,13.9845372 40.2665242,11.5049174 C40.2665242,9.06760258 41.8729015,6.97623363 44.4647947,6.97623363 L44.4647947,6.97623363 Z M46.8641937,10.6635934 C46.799803,9.4128661 45.771586,8.29110083 44.4647947,8.29110083 C43.0298998,8.29110083 41.9162805,9.32689139 41.7658097,10.6635934 L46.8641937,10.6635934 L46.8641937,10.6635934 Z" id="Shape"></path>
                            <path d="M51.2536027,12.9275941 C51.2536027,12.9275941 50.5683506,12.0426005 50.5683506,10.771403 C50.5683506,8.76600875 51.9605442,6.9755513 54.1884608,6.9755513 L57.8078932,6.9755513 C58.0437663,6.9755513 58.2152487,7.14818305 58.2152487,7.38563702 L58.2152487,7.75205304 C58.2152487,7.90353229 58.1298464,8.09731656 57.9793756,8.11846907 L56.8223773,8.35592303 C56.8223773,8.35592303 57.7862037,9.06760258 57.7862037,10.771403 C57.7862037,12.7331275 56.39401,14.4362456 54.187783,14.4362456 C52.8172788,14.4362456 52.1530384,13.8978802 52.1530384,13.8978802 C52.1530384,13.8978802 51.2102237,14.328436 51.2102237,15.1915948 C51.2102237,15.7306426 51.5958898,16.2478556 52.3882337,16.2478556 L55.472207,16.2478556 C57.2710785,16.2478556 58.6849616,17.1328492 58.6849616,19.0079167 C58.6849616,20.7976918 56.8427112,22.5014922 54.250818,22.5014922 C51.3810284,22.5014922 50.1386277,20.9491711 50.1386277,19.5264943 C50.1386277,18.2327796 51.1668447,17.6500621 51.3810284,17.5211001 L51.3810284,17.4562779 C50.8238798,17.3047986 49.8173523,16.7445983 49.8173523,15.407214 C49.8187078,13.7689181 51.2536027,12.9275941 51.2536027,12.9275941 L51.2536027,12.9275941 Z M54.2311619,21.099968 C55.6450451,21.099968 57.1016294,20.3016314 57.1016294,19.0515864 C57.1016294,18.7704627 56.9728481,17.6493798 55.4735626,17.6493798 L53.0958531,17.6493798 C53.0958531,17.6493798 51.6609583,18.0369483 51.6609583,19.3101929 C51.6609583,20.3446187 52.7745776,21.099968 54.2311619,21.099968 L54.2311619,21.099968 Z M56.3519866,10.7277333 C56.3519866,9.30505654 55.4952521,8.31293568 54.2101503,8.31293568 C52.9033589,8.31293568 51.961222,9.30505654 51.961222,10.7277333 C51.961222,12.1510924 52.9040367,13.1432132 54.2101503,13.1432132 C55.4945743,13.1432132 56.3519866,12.1510924 56.3519866,10.7277333 L56.3519866,10.7277333 Z" id="Shape"></path>
                            <path d="M60.2066144,2.18894342 C60.2066144,1.60622594 60.6566711,1.1538352 61.2131419,1.1538352 C61.7913022,1.1538352 62.2413589,1.60622594 62.2413589,2.18894342 C62.2413589,2.74982605 61.7913022,3.20289913 61.2131419,3.20289913 C60.6566711,3.20289913 60.2066144,2.74982605 60.2066144,2.18894342 L60.2066144,2.18894342 Z M60.5068781,7.60125613 C60.5068781,7.38631936 60.6993723,7.19185275 60.9142337,7.19185275 L61.5777963,7.19185275 C61.79198,7.19185275 61.9851519,7.38563702 61.9851519,7.60125613 L61.9851519,15.4065316 C61.9851519,15.6221507 61.79198,15.8172997 61.5777963,15.8172997 L60.9142337,15.8172997 C60.7000501,15.8172997 60.5068781,15.6228331 60.5068781,15.4065316 L60.5068781,7.60125613 L60.5068781,7.60125613 Z" id="Shape"></path>
                            <path d="M65.0257462,7.60125613 C65.0257462,7.38631936 65.2189182,7.19185275 65.4331018,7.19185275 L65.8397796,7.19185275 C66.0329516,7.19185275 66.1393656,7.27782746 66.1827446,7.45045922 L66.3752387,8.11846907 C66.3752387,8.11846907 67.5959499,6.9755513 69.3738097,6.9755513 C71.858611,6.9755513 72.6936561,8.6145295 72.6936561,10.8566954 L72.6936561,15.4058493 C72.6936561,15.6214684 72.5011619,15.8166173 72.2869783,15.8166173 L71.6017262,15.8166173 C71.3875426,15.8166173 71.1943706,15.6221507 71.1943706,15.4058493 L71.1943706,10.8566954 C71.1943706,9.21839949 70.4664174,8.4200629 69.2667179,8.4200629 C67.6603406,8.4200629 66.50402,9.64895538 66.50402,9.64895538 L66.50402,15.4065316 C66.50402,15.6221507 66.3108481,15.8172997 66.0966644,15.8172997 L65.4331018,15.8172997 C65.2189182,15.8172997 65.0257462,15.6228331 65.0257462,15.4065316 L65.0257462,7.60125613 L65.0257462,7.60125613 Z" id="Shape"></path>
                            <path d="M75.113389,14.6095597 C75.1987913,14.4799153 75.3492621,14.1776391 75.412975,14.0698296 C75.5200668,13.8978802 75.7552621,13.8548928 75.9911352,14.0056897 C75.9911352,14.0056897 76.9122604,14.7596743 78.0048681,14.7596743 C78.8826144,14.7596743 79.3970618,14.3066012 79.3970618,13.7238837 C79.3970618,12.9698992 78.7545109,12.6246356 77.5121102,11.9996131 C76.3768013,11.4387305 75.07001,10.6840636 75.07001,9.21839949 C75.07001,8.31225334 75.7986411,6.9755513 77.7906845,6.9755513 C78.9043038,6.9755513 79.7610384,7.36311983 80.1677162,7.64424349 C80.3608881,7.77320555 80.424601,8.07479938 80.2964975,8.31225334 L80.125015,8.65751686 C79.9969115,8.89497082 79.6966477,8.95911068 79.5034758,8.85198346 C79.5034758,8.85198346 78.5823506,8.33408819 77.7900067,8.33408819 C76.8261803,8.33408819 76.5692955,8.83014862 76.5692955,9.19656464 C76.5692955,9.90824419 77.2755593,10.2316729 78.1539833,10.6629111 C79.6315793,11.3745906 80.9600601,12.0419182 80.9600601,13.5949216 C80.9600601,14.8463313 79.7603606,16.0315541 78.0041903,16.0315541 C76.5692955,16.0315541 75.6908715,15.4276841 75.219803,15.0612681 C75.113389,14.9759757 75.0496761,14.7603566 75.113389,14.6095597 L75.113389,14.6095597 Z" id="Shape"></path>
                            <path d="M87.1923973,7.68791318 C87.1076728,7.38631936 87.1923973,7.19185275 87.5143506,7.19185275 L88.178591,7.19185275 C88.3704073,7.19185275 88.5202003,7.29966231 88.5635793,7.42930671 L90.1272554,13.1213784 L90.1482671,13.1213784 L92.568,7.19253509 C92.611379,7.08472553 92.7401603,6.97691597 92.9319766,6.97691597 L93.0390684,6.97691597 C93.2322404,6.97691597 93.3610217,7.08472553 93.4030451,7.19253509 L95.8031219,13.1438956 L95.8241336,13.1438956 L97.3661202,7.42998905 C97.4088214,7.30102698 97.5579366,7.19253509 97.7300968,7.19253509 L98.3936594,7.19253509 C98.7156127,7.19253509 98.8016928,7.38631936 98.7156127,7.68859552 L96.3806043,15.817982 C96.3379032,15.9469441 96.188788,16.0329188 96.0166277,16.0329188 L95.9095359,16.0329188 C95.7177195,16.0329188 95.5889382,15.9257916 95.5455593,15.817982 L92.9326544,9.34940857 L90.4051519,15.817982 C90.3624508,15.9257916 90.2343472,16.0329188 90.0411753,16.0329188 L89.9340835,16.0329188 C89.7422671,16.0329188 89.6134858,15.9469441 89.5701068,15.817982 L87.1923973,7.68791318 L87.1923973,7.68791318 Z" id="Shape"></path>
                            <path d="M100.643265,2.18894342 C100.643265,1.60622594 101.091967,1.1538352 101.649115,1.1538352 C102.227953,1.1538352 102.67801,1.60622594 102.67801,2.18894342 C102.67801,2.74982605 102.227953,3.20289913 101.649115,3.20289913 C101.091967,3.20289913 100.643265,2.74982605 100.643265,2.18894342 L100.643265,2.18894342 Z M100.942851,7.60125613 C100.942851,7.38631936 101.136023,7.19185275 101.350885,7.19185275 L102.014447,7.19185275 C102.228631,7.19185275 102.422481,7.38563702 102.422481,7.60125613 L102.422481,15.4065316 C102.422481,15.6221507 102.229309,15.8172997 102.014447,15.8172997 L101.350885,15.8172997 C101.136701,15.8172997 100.942851,15.6228331 100.942851,15.4065316 L100.942851,7.60125613 L100.942851,7.60125613 Z" id="Shape"></path>
                            <path d="M106.019546,8.48624978 L104.92626,8.48624978 C104.690387,8.48624978 104.519583,8.29178317 104.519583,8.07548172 L104.519583,7.60125613 C104.519583,7.36380217 104.690387,7.19185275 104.92626,7.19185275 L106.019546,7.19185275 L106.019546,4.79820764 C106.019546,4.58258853 106.211362,4.38812192 106.426224,4.38812192 L107.112154,4.34513456 C107.324982,4.34513456 107.497142,4.53960117 107.497142,4.75522029 L107.497142,7.19185275 L109.981943,7.19185275 C110.217816,7.19185275 110.388621,7.36380217 110.388621,7.60125613 L110.388621,8.07548172 C110.388621,8.29110083 110.217816,8.48624978 109.981943,8.48624978 L107.497142,8.48624978 L107.497142,13.5321465 C107.497142,14.3946229 107.711326,14.5665723 108.204083,14.5665723 C108.738865,14.5665723 109.489185,14.243826 109.76776,14.0923468 C110.089713,13.9203973 110.174437,14.0493594 110.281529,14.2219912 L110.603482,14.7610389 C110.753275,15.0196454 110.689563,15.1486075 110.453689,15.3000867 C110.153426,15.493871 108.996427,16.0329188 107.9899,16.0329188 C106.277109,16.0329188 106.020224,14.9978106 106.020224,13.6611085 L106.020224,8.48624978 L106.019546,8.48624978 Z" id="Shape"></path>
                            <path d="M112.808354,1.13268269 C112.808354,0.917063576 113.001526,0.72259697 113.216387,0.72259697 L113.87995,0.72259697 C114.094134,0.72259697 114.287983,0.916381237 114.287983,1.13268269 L114.287983,8.11846907 C114.287983,8.11846907 115.422614,6.9755513 117.157773,6.9755513 C119.277242,6.9755513 120.477619,8.33408819 120.477619,10.8566954 L120.477619,15.4058493 C120.477619,15.6214684 120.284447,15.8166173 120.069586,15.8166173 L119.383656,15.8166173 C119.170828,15.8166173 118.976978,15.6221507 118.976978,15.4058493 L118.976978,10.8566954 C118.976978,9.21839949 118.249025,8.4200629 117.049326,8.4200629 C115.421259,8.4200629 114.286628,9.62780287 114.286628,9.62780287 L114.286628,15.4065316 C114.286628,15.6221507 114.093456,15.8172997 113.878594,15.8172997 L113.215032,15.8172997 C113.000848,15.8172997 112.806998,15.6228331 112.806998,15.4065316 L112.806998,1.13268269 L112.808354,1.13268269 Z" id="Shape"></path>
                            <path d="M127.350474,7.68791318 C127.264394,7.38631936 127.350474,7.19185275 127.672427,7.19185275 L128.33599,7.19185275 C128.529162,7.19185275 128.678955,7.29966231 128.722334,7.42930671 L130.28601,13.1213784 L130.307022,13.1213784 L132.726755,7.19253509 C132.770134,7.08472553 132.898915,6.97691597 133.090731,6.97691597 L133.197823,6.97691597 C133.390995,6.97691597 133.519776,7.08472553 133.5618,7.19253509 L135.960521,13.1438956 L135.982888,13.1438956 L137.524875,7.42998905 C137.567576,7.30102698 137.716691,7.19253509 137.888851,7.19253509 L138.552414,7.19253509 C138.874367,7.19253509 138.960447,7.38631936 138.874367,7.68859552 L136.539359,15.817982 C136.496658,15.9469441 136.347543,16.0329188 136.175382,16.0329188 L136.06829,16.0329188 C135.876474,16.0329188 135.747693,15.9257916 135.704314,15.817982 L133.091409,9.34940857 L130.563907,15.817982 C130.521205,15.9257916 130.393102,16.0329188 130.19993,16.0329188 L130.092838,16.0329188 C129.901022,16.0329188 129.770885,15.9469441 129.728861,15.817982 L127.350474,7.68791318 L127.350474,7.68791318 Z" id="Shape"></path>
                            <path d="M143.907005,10.3394824 C144.826775,10.3394824 145.727566,10.6199237 145.727566,10.6199237 C145.748578,9.02393288 145.555406,8.29110083 144.334694,8.29110083 C143.156684,8.29110083 142.150157,8.61521184 141.765169,8.76532641 C141.550985,8.85198346 141.422204,8.74417391 141.357135,8.5497073 L141.186331,8.01134185 C141.10025,7.75205304 141.229032,7.62309098 141.422204,7.53711627 C141.550307,7.47161173 142.79203,6.97623363 144.399763,6.97623363 C146.584301,6.97623363 147.120437,8.0979989 147.120437,10.6206061 L147.120437,15.407214 C147.120437,15.6228331 146.927265,15.817982 146.712404,15.817982 L146.305726,15.817982 C146.069853,15.817982 146.005462,15.6890199 145.94175,15.493871 L145.769589,14.9111535 C145.319533,15.3642266 144.441786,16.0329188 143.113983,16.0329188 C141.61402,16.0329188 140.479389,14.9336707 140.479389,13.2080355 C140.480067,11.5683749 141.700778,10.3394824 143.907005,10.3394824 L143.907005,10.3394824 Z M143.349856,14.7392041 C144.420775,14.7392041 145.3419,14.0705119 145.706554,13.5314641 L145.706554,11.8276637 C145.448314,11.6761845 144.848464,11.4830825 143.907683,11.4830825 C142.707306,11.4830825 141.850571,12.0869525 141.850571,13.2073531 C141.849893,14.0698296 142.428731,14.7392041 143.349856,14.7392041 L143.349856,14.7392041 Z" id="Shape"></path>
                            <path d="M150.65379,8.48624978 L149.56186,8.48624978 C149.325987,8.48624978 149.155182,8.29178317 149.155182,8.07548172 L149.155182,7.60125613 C149.155182,7.36380217 149.325987,7.19185275 149.56186,7.19185275 L150.65379,7.19185275 L150.65379,4.79820764 C150.65379,4.58258853 150.846962,4.38812192 151.061823,4.38812192 L151.746397,4.34513456 C151.960581,4.34513456 152.132741,4.53960117 152.132741,4.75522029 L152.132741,7.19185275 L154.616187,7.19185275 C154.85206,7.19185275 155.02422,7.36380217 155.02422,7.60125613 L155.02422,8.07548172 C155.02422,8.29110083 154.85206,8.48624978 154.616187,8.48624978 L152.132741,8.48624978 L152.132741,13.5321465 C152.132741,14.3946229 152.345569,14.5665723 152.839683,14.5665723 C153.374464,14.5665723 154.124107,14.243826 154.403359,14.0923468 C154.723957,13.9203973 154.810037,14.0493594 154.917129,14.2219912 L155.239082,14.7610389 C155.388875,15.0196454 155.323806,15.1486075 155.087933,15.3000867 C154.789025,15.493871 153.632027,16.0329188 152.625499,16.0329188 C150.911352,16.0329188 150.654467,14.9978106 150.654467,13.6611085 L150.654467,8.48624978 L150.65379,8.48624978 Z" id="Shape"></path>
                            <path d="M160.998995,6.97623363 C163.246568,6.97623363 164.875312,8.6581992 164.875312,10.9221999 C164.875312,11.0729968 164.854301,11.3534381 164.832611,11.5049174 C164.811599,11.7198542 164.639439,11.8713334 164.446267,11.8713334 L158.278321,11.8713334 C158.363045,13.315845 159.627135,14.6736996 161.14811,14.6736996 C162.046868,14.6736996 162.774821,14.328436 163.268935,14.0275246 C163.567843,13.8548928 163.696624,13.7470832 163.868785,13.9845372 C163.996888,14.157169 164.104658,14.3079659 164.232761,14.4805976 C164.382554,14.6743819 164.468634,14.8040263 164.146681,15.0407979 C163.632912,15.451566 162.475913,16.0329188 160.998317,16.0329188 C158.406424,16.0329188 156.799369,13.9845372 156.799369,11.5049174 C156.800047,9.06760258 158.407102,6.97623363 160.998995,6.97623363 L160.998995,6.97623363 Z M163.397716,10.6635934 C163.332648,9.4128661 162.304431,8.29110083 160.998995,8.29110083 C159.562745,8.29110083 158.449125,9.32689139 158.30001,10.6635934 L163.397716,10.6635934 L163.397716,10.6635934 Z" id="Shape"></path>
                            <path d="M167.208965,7.60125613 C167.208965,7.38631936 167.402137,7.19185275 167.615643,7.19185275 L168.023676,7.19185275 C168.194481,7.19185275 168.345629,7.29966231 168.387653,7.49344657 L168.558457,8.11846907 C168.558457,8.11846907 169.351479,6.9755513 171.129339,6.9755513 C171.771212,6.9755513 172.84213,7.08336085 172.627947,7.68723084 L172.371062,8.4200629 C172.26397,8.70050421 172.072154,8.70050421 171.857292,8.6145295 C171.66412,8.52787245 171.343523,8.4412154 171.022247,8.4412154 C169.39418,8.4412154 168.687239,9.64895538 168.687239,9.64895538 L168.687239,15.4065316 C168.687239,15.6221507 168.495422,15.8172997 168.280561,15.8172997 L167.616321,15.8172997 C167.403492,15.8172997 167.209643,15.6228331 167.209643,15.4065316 L167.209643,7.60125613 L167.208965,7.60125613 Z" id="Shape"></path>
                        </g>
                        <g transform="translate(1.000000, 0.000000)" fill="#67CFE3">
                            <path d="M28.2363172,29.3508108 C25.3963506,29.3508108 23.0931987,31.6625752 23.0931987,34.5277166 C23.0931987,34.7406063 23.1060768,34.945308 23.1311553,35.1506921 L23.1311553,35.1506921 C23.2077462,35.8009611 22.9176494,36.4355363 22.3381336,36.758965 C22.333389,36.7616944 22.3286444,36.7644237 22.3225442,36.7685178 L15.4571452,40.6107685 C15.4564674,40.6121332 15.4557896,40.6121332 15.4557896,40.6121332 C14.7942604,40.9819609 14.020217,40.8011411 13.5566043,40.3357859 L13.554571,40.3357859 C12.8008614,39.5661075 11.890581,38.9533671 10.8765977,38.5480578 C10.8616861,38.5398697 10.8460968,38.532364 10.8298297,38.5269053 C10.15,38.2730752 9.75348915,37.5845952 9.80432387,36.8865624 L9.80432387,36.8865624 L9.84838063,36.4130192 C12.8333957,36.2096821 15.1934825,33.7095922 15.1934825,30.6547606 C15.1934825,27.4593672 12.62599,24.8780789 9.45729215,24.8780789 C6.28859432,24.8780789 3.72042404,27.4593672 3.72042404,30.6547606 C3.72042404,33.3356704 5.53759599,35.5901184 7.99935225,36.2397051 L7.95732888,36.6961898 C7.90039399,37.3021068 7.42729215,37.9441878 6.68646077,38.1052198 C2.99518197,38.7329717 0.180293823,41.9638467 0.180293823,45.8613669 C0.180293823,50.2024074 3.68043406,53.7266882 7.99528548,53.7266882 C12.3101369,53.7266882 15.8102771,50.2024074 15.8102771,45.8613669 C15.8102771,45.2520382 15.7397863,44.6604503 15.6089716,44.0913796 C15.6062604,44.0743211 15.6028715,44.0545333 15.5974491,44.0354278 C15.4449449,43.415864 15.6862404,42.6523267 16.3626811,42.244288 L16.3626811,42.244288 L23.1887679,38.4245544 C23.8943539,38.0301625 24.5958731,38.2369112 25.0235626,38.5698926 C25.025596,38.572622 25.028985,38.5753514 25.0330518,38.5780807 C25.9121536,39.2829369 27.0264508,39.708034 28.2376728,39.708034 C31.078995,39.708034 33.3821469,37.3853522 33.3821469,34.5283989 C33.3807913,31.6618929 31.0776394,29.3508108 28.2363172,29.3508108 L28.2363172,29.3508108 Z" id="Shape"></path>
                            <path d="M38.9956561,15.9080508 C37.0985042,16.9745466 35.8147579,19.0154224 35.8147579,21.3633508 C35.8147579,24.8112096 38.5910117,27.604023 42.0152387,27.604023 C45.438788,27.604023 48.2157195,24.8112096 48.2157195,21.3633508 C48.2157195,18.9458239 46.8547045,16.8551372 44.8653723,15.8166173 C47.8083639,14.6068303 49.8837763,11.6966546 49.8837763,8.29724188 C49.8837763,3.80199274 46.2711219,0.173314098 41.8152888,0.173314098 C37.3696227,0.173314098 33.7664574,3.78220491 33.7468013,8.26107792 L33.7468013,8.28154808 C33.7468013,8.917488 33.3469015,9.59573294 32.5959032,9.8120344 L32.5959032,9.8120344 L31.0837396,10.250096 C30.5089683,10.415222 29.7986377,10.2180261 29.3824708,9.69671911 L29.381793,9.69671911 C28.4606678,8.53469584 27.0427179,7.79094636 25.4519299,7.79094636 C22.6749983,7.79094636 20.4233589,10.0501707 20.4233589,12.8511722 C20.4233589,15.6419386 22.6749983,17.9127627 25.4519299,17.9127627 C28.0329783,17.9127627 30.1585476,15.9483088 30.4452554,13.4297956 L30.446611,13.4291133 C30.5177796,12.8156905 30.9271686,12.2745957 31.5066845,12.0733057 L32.9788581,11.6475262 C33.7400234,11.4271307 34.4686544,11.775806 34.846187,12.4049225 C34.8699098,12.4458628 34.8949883,12.4806621 34.9200668,12.5100027 C35.8554257,14.0582298 37.2869316,15.2666521 38.9956561,15.9080508 L38.9956561,15.9080508 Z" id="Shape"></path>
                            <path d="M61.2436427,37.4535861 C61.4754491,36.8265166 62.0630985,36.4021017 62.7564841,36.3980077 L62.7673289,36.3980077 C65.9421269,36.3980077 68.5150417,33.8044373 68.5150417,30.6138202 C68.5150417,27.4102388 65.9414491,24.8296328 62.7673289,24.8296328 C59.5932087,24.8296328 57.019616,27.4095564 57.019616,30.6138202 C57.019616,32.3844899 57.8153489,33.9681986 59.0652053,35.0306004 C59.5877863,35.5020966 59.7274124,36.1789769 59.5071285,36.795129 L58.1101903,40.5971217 L58.1101903,40.5998511 C57.8729616,41.2432967 57.1978765,41.7270751 56.3797763,41.6301829 L56.3770651,41.6315476 C56.0022437,41.5851486 55.6226778,41.5605844 55.2370117,41.5605844 C53.1548214,41.5605844 51.2312354,42.2388293 49.6662037,43.3844764 L49.6634925,43.3844764 C49.0534758,43.8259497 48.2665543,43.7440691 47.7561736,43.3681003 L46.3517796,42.1467135 C45.8949449,41.7502746 45.6766945,41.0972762 45.8725776,40.4572422 L45.871222,40.4572422 C46.0128815,39.985746 46.0894725,39.4862739 46.0894725,38.9676963 C46.0894725,36.1011902 43.7863205,33.7907905 40.9463539,33.7907905 C38.1063873,33.7907905 35.8018798,36.1011902 35.8018798,38.9676963 C35.8018798,41.8232849 38.1063873,44.1459667 40.9463539,44.1459667 C41.8349449,44.1459667 42.66999,43.9194302 43.3965876,43.5182149 L43.3979432,43.5182149 C44.1936761,43.0774239 44.9270518,43.3783354 45.2673055,43.6731058 L46.4866611,44.7355076 C47.0092421,45.1906277 47.172591,46.0496924 46.8269149,46.6897264 C46.8187813,46.7040555 46.8133589,46.7149729 46.8086144,46.7279374 C46.130818,48.0434869 45.7458297,49.5343976 45.7458297,51.1181063 C45.7458297,56.3919042 49.9962905,60.6722166 55.2376895,60.6722166 C60.4763773,60.6722166 64.7268381,56.3919042 64.7268381,51.1181063 C64.7268381,47.8005742 63.0445476,44.8774341 60.4946778,43.1633986 C60.4865442,43.1579399 60.4811219,43.1538458 60.4750217,43.1490695 C59.9653189,42.8194998 59.5403406,42.0969028 59.8446711,41.2685433 L59.8446711,41.2685433 L61.2436427,37.4535861 L61.2436427,37.4535861 Z" id="Shape"></path>
                        </g>
                    </g>
                </g>
            </g>
        </g>
    </g>
</svg>